<svg width="24" height="24" viewBox="0 0 24 24" fill="none" xmlns="http://www.w3.org/2000/svg">
<path fill-rule="evenodd" clip-rule="evenodd" d="M12 3C7.0275 3 3 7.0275 3 12C3 15.9825 5.57625 19.3462 9.15375 20.5387C9.60375 20.6175 9.7725 20.3475 9.7725 20.1112C9.7725 19.8975 9.76125 19.1887 9.76125 18.435C7.5 18.8512 6.915 17.8837 6.735 17.3775C6.63375 17.1187 6.195 16.32 5.8125 16.1062C5.4975 15.9375 5.0475 15.5212 5.80125 15.51C6.51 15.4987 7.01625 16.1625 7.185 16.4325C7.995 17.7937 9.28875 17.4112 9.80625 17.175C9.885 16.59 10.1213 16.1962 10.38 15.9712C8.3775 15.7462 6.285 14.97 6.285 11.5275C6.285 10.5487 6.63375 9.73875 7.2075 9.10875C7.1175 8.88375 6.8025 7.96125 7.2975 6.72375C7.2975 6.72375 8.05125 6.4875 9.7725 7.64625C10.4925 7.44375 11.2575 7.3425 12.0225 7.3425C12.7875 7.3425 13.5525 7.44375 14.2725 7.64625C15.9937 6.47625 16.7475 6.72375 16.7475 6.72375C17.2425 7.96125 16.9275 8.88375 16.8375 9.10875C17.4113 9.73875 17.76 10.5375 17.76 11.5275C17.76 14.9812 15.6562 15.7462 13.6537 15.9712C13.98 16.2525 14.2613 16.7925 14.2613 17.6362C14.2613 18.84 14.25 19.8075 14.25 20.1112C14.25 20.3475 14.4187 20.6287 14.8687 20.5387C16.6554 19.9355 18.2079 18.7873 19.3077 17.2555C20.4076 15.7238 20.9995 13.8857 21 12C21 7.0275 16.9725 3 12 3Z" fill="white"/>
</svg>
